<svg width="32" height="32" viewBox="0 0 32 32" fill="none" xmlns="http://www.w3.org/2000/svg">
<path d="M13.5874 24.9554L13.2292 22.0897C13.0351 22.0151 12.8524 21.9255 12.6811 21.821C12.5098 21.7166 12.3417 21.6046 12.1769 21.4852L9.51274 22.6046L7.05005 18.3509L9.35602 16.6046C9.34109 16.5001 9.33363 16.3995 9.33363 16.3028V15.6984C9.33363 15.601 9.34109 15.5001 9.35602 15.3957L7.05005 13.6494L9.51274 9.39567L12.1769 10.5151C12.3411 10.3957 12.5127 10.2837 12.6918 10.1793C12.8709 10.0748 13.05 9.98522 13.2292 9.91059L13.5874 7.04492H18.5127L18.8709 9.91059C19.065 9.98522 19.248 10.0748 19.4199 10.1793C19.5918 10.2837 19.7596 10.3957 19.9232 10.5151L22.5874 9.39567L25.05 13.6494L22.7441 15.3957C22.759 15.5001 22.7665 15.601 22.7665 15.6984V16.3019C22.7665 16.3993 22.7515 16.5001 22.7217 16.6046L25.0277 18.3509L22.565 22.6046L19.9232 21.4852C19.759 21.6046 19.5874 21.7166 19.4083 21.821C19.2292 21.9255 19.05 22.0151 18.8709 22.0897L18.5127 24.9554H13.5874ZM16.0948 19.1345C16.9605 19.1345 17.6993 18.8285 18.3112 18.2166C18.9232 17.6046 19.2292 16.8658 19.2292 16.0001C19.2292 15.1345 18.9232 14.3957 18.3112 13.7837C17.6993 13.1718 16.9605 12.8658 16.0948 12.8658C15.2142 12.8658 14.4715 13.1718 13.8668 13.7837C13.262 14.3957 12.9599 15.1345 12.9605 16.0001C12.9611 16.8658 13.2635 17.6046 13.8677 18.2166C14.4718 18.8285 15.2142 19.1345 16.0948 19.1345Z" fill="white"/>
</svg>
