<svg width="174" height="32" viewBox="0 0 174 32" fill="none" xmlns="http://www.w3.org/2000/svg">
<g clip-path="url(#clip0_391_2667)">
<path d="M51.1766 25.114C49.2866 25.114 47.5676 24.664 46.0196 23.764C44.4896 22.864 43.2926 21.622 42.4286 20.038C41.5646 18.454 41.1326 16.681 41.1326 14.719C41.1326 12.757 41.5646 10.984 42.4286 9.4C43.2926 7.816 44.4896 6.583 46.0196 5.701C47.5496 4.801 49.2686 4.351 51.1766 4.351C52.5626 4.351 53.8316 4.594 54.9836 5.08C56.1356 5.548 57.1076 6.187 57.8996 6.997C58.7096 7.789 59.2946 8.671 59.6546 9.643L56.3606 11.182C55.9646 10.138 55.3076 9.301 54.3896 8.671C53.4896 8.023 52.4186 7.699 51.1766 7.699C49.9346 7.699 48.8276 7.996 47.8556 8.59C46.8836 9.166 46.1276 9.985 45.5876 11.047C45.0656 12.109 44.8046 13.333 44.8046 14.719C44.8046 16.105 45.0656 17.329 45.5876 18.391C46.1276 19.453 46.8836 20.281 47.8556 20.875C48.8276 21.469 49.9346 21.766 51.1766 21.766C52.4186 21.766 53.4896 21.451 54.3896 20.821C55.3076 20.173 55.9646 19.327 56.3606 18.283L59.6546 19.822C59.2946 20.794 58.7096 21.685 57.8996 22.495C57.1076 23.287 56.1356 23.926 54.9836 24.412C53.8316 24.88 52.5626 25.114 51.1766 25.114Z" fill="#0C0C0C"/>
<path d="M61.2587 4.351H64.7957V24.79H61.2587V4.351Z" fill="#0C0C0C"/>
<path d="M66.9815 10.102H70.5185V24.79H66.9815V10.102ZM68.7365 8.077C68.1065 8.077 67.6115 7.897 67.2515 7.537C66.8915 7.177 66.7115 6.682 66.7115 6.052C66.7115 5.404 66.8915 4.9 67.2515 4.54C67.6115 4.18 68.1065 4 68.7365 4C69.3845 4 69.8885 4.18 70.2485 4.54C70.6085 4.9 70.7885 5.404 70.7885 6.052C70.7885 6.7 70.6085 7.204 70.2485 7.564C69.8885 7.906 69.3845 8.077 68.7365 8.077Z" fill="#0C0C0C"/>
<path d="M72.7042 10.102H76.0252V13.018L75.7012 12.289C76.2052 11.497 76.8892 10.885 77.7532 10.453C78.6352 10.003 79.6342 9.778 80.7502 9.778C82.1182 9.778 83.3692 10.12 84.5032 10.804C85.6372 11.488 86.5282 12.415 87.1762 13.585C87.8242 14.737 88.1482 16.024 88.1482 17.446C88.1482 18.868 87.8242 20.164 87.1762 21.334C86.5282 22.504 85.6372 23.431 84.5032 24.115C83.3872 24.781 82.1272 25.114 80.7232 25.114C79.6432 25.114 78.6532 24.898 77.7532 24.466C76.8712 24.034 76.1782 23.431 75.6742 22.657L76.2412 21.955V30.19H72.7042V10.102ZM80.3182 21.874C81.1102 21.874 81.8212 21.685 82.4512 21.307C83.0992 20.929 83.5942 20.407 83.9362 19.741C84.2962 19.057 84.4762 18.292 84.4762 17.446C84.4762 16.6 84.2962 15.844 83.9362 15.178C83.5942 14.512 83.0992 13.99 82.4512 13.612C81.8212 13.216 81.1102 13.018 80.3182 13.018C79.5442 13.018 78.8422 13.207 78.2122 13.585C77.6002 13.963 77.1142 14.494 76.7542 15.178C76.4122 15.862 76.2412 16.618 76.2412 17.446C76.2412 18.292 76.4122 19.057 76.7542 19.741C77.1142 20.407 77.6002 20.929 78.2122 21.307C78.8422 21.685 79.5442 21.874 80.3182 21.874Z" fill="#0C0C0C"/>
<path d="M90.0618 4.675H96.6228C98.7288 4.675 100.574 5.098 102.158 5.944C103.742 6.79 104.966 7.978 105.83 9.508C106.694 11.02 107.126 12.757 107.126 14.719C107.126 16.681 106.694 18.427 105.83 19.957C104.966 21.469 103.733 22.657 102.131 23.521C100.547 24.367 98.7108 24.79 96.6228 24.79H90.0618V4.675ZM96.7038 21.55C98.0538 21.55 99.2328 21.271 100.241 20.713C101.267 20.155 102.05 19.363 102.59 18.337C103.148 17.311 103.427 16.105 103.427 14.719C103.427 13.333 103.148 12.136 102.59 11.128C102.05 10.102 101.267 9.31 100.241 8.752C99.2328 8.194 98.0538 7.915 96.7038 7.915H93.7338V21.55H96.7038Z" fill="#0C0C0C"/>
<path d="M115.826 25.114C114.422 25.114 113.117 24.781 111.911 24.115C110.723 23.449 109.787 22.531 109.103 21.361C108.419 20.191 108.077 18.886 108.077 17.446C108.077 15.988 108.419 14.683 109.103 13.531C109.787 12.361 110.723 11.443 111.911 10.777C113.099 10.111 114.404 9.778 115.826 9.778C117.266 9.778 118.571 10.111 119.741 10.777C120.929 11.443 121.865 12.361 122.549 13.531C123.251 14.701 123.602 16.006 123.602 17.446C123.602 18.904 123.251 20.218 122.549 21.388C121.865 22.54 120.929 23.449 119.741 24.115C118.553 24.781 117.248 25.114 115.826 25.114ZM115.853 21.874C116.627 21.874 117.32 21.685 117.932 21.307C118.544 20.929 119.021 20.407 119.363 19.741C119.723 19.057 119.903 18.292 119.903 17.446C119.903 16.6 119.723 15.844 119.363 15.178C119.021 14.512 118.544 13.99 117.932 13.612C117.32 13.216 116.618 13.018 115.826 13.018C115.052 13.018 114.35 13.216 113.72 13.612C113.108 13.99 112.622 14.512 112.262 15.178C111.92 15.844 111.749 16.6 111.749 17.446C111.749 18.292 111.92 19.057 112.262 19.741C112.622 20.407 113.108 20.929 113.72 21.307C114.35 21.685 115.061 21.874 115.853 21.874Z" fill="#0C0C0C"/>
<path d="M132.332 30.73C130.676 30.73 129.227 30.343 127.985 29.569C126.743 28.795 125.879 27.751 125.393 26.437L128.687 25.195C128.903 25.897 129.335 26.455 129.983 26.869C130.631 27.283 131.414 27.49 132.332 27.49C133.052 27.49 133.682 27.355 134.222 27.085C134.78 26.815 135.212 26.419 135.518 25.897C135.824 25.375 135.977 24.763 135.977 24.061V20.713L136.652 21.523C136.148 22.405 135.473 23.071 134.627 23.521C133.781 23.971 132.818 24.196 131.738 24.196C130.388 24.196 129.164 23.881 128.066 23.251C126.986 22.621 126.14 21.757 125.528 20.659C124.916 19.561 124.61 18.328 124.61 16.96C124.61 15.61 124.907 14.386 125.501 13.288C126.113 12.19 126.95 11.335 128.012 10.723C129.092 10.093 130.307 9.778 131.657 9.778C132.755 9.778 133.718 10.003 134.546 10.453C135.374 10.903 136.076 11.569 136.652 12.451L136.166 13.342V10.102H139.514V24.061C139.514 25.339 139.208 26.482 138.596 27.49C137.984 28.498 137.129 29.29 136.031 29.866C134.951 30.442 133.718 30.73 132.332 30.73ZM132.17 20.929C132.908 20.929 133.565 20.767 134.141 20.443C134.717 20.101 135.167 19.633 135.491 19.039C135.815 18.445 135.977 17.761 135.977 16.987C135.977 16.231 135.806 15.556 135.464 14.962C135.14 14.35 134.69 13.873 134.114 13.531C133.556 13.189 132.908 13.018 132.17 13.018C131.432 13.018 130.766 13.189 130.172 13.531C129.578 13.873 129.11 14.35 128.768 14.962C128.444 15.574 128.282 16.249 128.282 16.987C128.282 17.743 128.444 18.418 128.768 19.012C129.11 19.606 129.578 20.074 130.172 20.416C130.766 20.758 131.432 20.929 132.17 20.929Z" fill="#0C0C0C"/>
<path d="M148.839 30.73C147.183 30.73 145.734 30.343 144.492 29.569C143.25 28.795 142.386 27.751 141.9 26.437L145.194 25.195C145.41 25.897 145.842 26.455 146.49 26.869C147.138 27.283 147.921 27.49 148.839 27.49C149.559 27.49 150.189 27.355 150.729 27.085C151.287 26.815 151.719 26.419 152.025 25.897C152.331 25.375 152.484 24.763 152.484 24.061V20.713L153.159 21.523C152.655 22.405 151.98 23.071 151.134 23.521C150.288 23.971 149.325 24.196 148.245 24.196C146.895 24.196 145.671 23.881 144.573 23.251C143.493 22.621 142.647 21.757 142.035 20.659C141.423 19.561 141.117 18.328 141.117 16.96C141.117 15.61 141.414 14.386 142.008 13.288C142.62 12.19 143.457 11.335 144.519 10.723C145.599 10.093 146.814 9.778 148.164 9.778C149.262 9.778 150.225 10.003 151.053 10.453C151.881 10.903 152.583 11.569 153.159 12.451L152.673 13.342V10.102H156.021V24.061C156.021 25.339 155.715 26.482 155.103 27.49C154.491 28.498 153.636 29.29 152.538 29.866C151.458 30.442 150.225 30.73 148.839 30.73ZM148.677 20.929C149.415 20.929 150.072 20.767 150.648 20.443C151.224 20.101 151.674 19.633 151.998 19.039C152.322 18.445 152.484 17.761 152.484 16.987C152.484 16.231 152.313 15.556 151.971 14.962C151.647 14.35 151.197 13.873 150.621 13.531C150.063 13.189 149.415 13.018 148.677 13.018C147.939 13.018 147.273 13.189 146.679 13.531C146.085 13.873 145.617 14.35 145.275 14.962C144.951 15.574 144.789 16.249 144.789 16.987C144.789 17.743 144.951 18.418 145.275 19.012C145.617 19.606 146.085 20.074 146.679 20.416C147.273 20.758 147.939 20.929 148.677 20.929Z" fill="#0C0C0C"/>
<path d="M163.105 23.305L163.267 26.275L156.868 10.102H160.675L165.157 22.036H163.807L168.262 10.102H172.096L164.158 30.19H160.351L163.105 23.305Z" fill="#0C0C0C"/>
<path d="M15.3444 11.3127C21.8488 11.1256 28.6101 22.134 26.5188 27.9808C24.4724 33.6985 13.1912 32.0855 8.7623 30.5715C2.50039 28.4314 5.72622 20.8518 8.1087 16.8735C9.67944 14.2526 12.0013 11.4089 15.3444 11.3127Z" fill="#0C0C0C"/>
<path d="M20.0052 1.84078C21.9423 -0.197767 24.9941 0.503271 26.1076 3.00302C27.6402 6.44496 24.894 13.0192 20.7919 11.0571C17.5634 9.51266 17.7769 4.18635 20.0052 1.84078Z" fill="#0C0C0C"/>
<path d="M15.8584 1.11072C18.5321 3.78705 17.0904 10.7105 12.7445 10.157C10.1011 9.82099 8.91914 6.59384 9.18796 4.26012C9.55561 1.07251 13.1688 -1.58142 15.8584 1.11072Z" fill="#0C0C0C"/>
<path d="M29.7487 8.02357C32.3196 7.48857 33.6637 11.3575 33.5833 13.3209C33.4726 16.0157 29.9924 19.8938 27.3332 17.8407C24.4935 15.648 26.4464 8.71011 29.7473 8.02357H29.7487Z" fill="#0C0C0C"/>
<path d="M3.64157 5.65164C8.88617 4.56318 10.5241 14.5965 4.68917 14.9219C-0.663491 15.2211 0.554101 6.29206 3.64157 5.65164Z" fill="#0C0C0C"/>
</g>
<defs>
<clipPath id="clip0_391_2667">
<rect width="174" height="32" fill="white"/>
</clipPath>
</defs>
</svg>
